<?xml version="1.0" standalone="no"?>
<!DOCTYPE svg PUBLIC "-//W3C//DTD SVG 20010904//EN"
 "http://www.w3.org/TR/2001/REC-SVG-20010904/DTD/svg10.dtd">
<svg version="1.0" xmlns="http://www.w3.org/2000/svg"
 width="700.000000pt" height="700.000000pt" viewBox="0 0 700.000000 700.000000"
 preserveAspectRatio="xMidYMid meet">
<metadata>
Created by potrace 1.14, written by Peter Selinger 2001-2017
</metadata>
<g transform="translate(0.000000,700.000000) scale(0.100000,-0.100000)"
fill="#000000" stroke="none">
<path d="M3443 5348 c-40 -13 -81 -56 -96 -100 -8 -24 -12 -146 -11 -404 0
-351 1 -373 20 -405 21 -36 73 -76 111 -85 59 -15 142 25 177 86 20 33 21 50
20 415 0 422 0 418 -67 469 -39 30 -106 40 -154 24z"/>
<path d="M1718 4628 c-99 -25 -148 -137 -102 -233 8 -16 131 -146 272 -287
196 -196 268 -261 298 -271 137 -48 263 93 200 224 -20 43 -523 545 -560 558
-42 17 -68 18 -108 9z"/>
<path d="M5175 4621 c-52 -24 -544 -517 -566 -566 -55 -122 74 -258 204 -216
38 13 548 514 574 566 68 130 -79 280 -212 216z"/>
<path d="M3345 3899 c-103 -15 -129 -21 -201 -45 -187 -61 -336 -153 -475
-293 -141 -142 -228 -284 -287 -471 -39 -121 -53 -202 -55 -315 l-2 -90 365
-5 c201 -3 730 -4 1176 -2 l811 2 -4 98 c-7 211 -72 416 -188 598 -49 76 -61
90 -165 194 -224 224 -499 338 -818 337 -59 0 -129 -3 -157 -8z"/>
<path d="M974 2884 c-74 -39 -101 -90 -95 -181 l1 -23 501 0 501 0 -4 60 c-5
73 -27 106 -89 138 -43 22 -48 22 -415 22 -311 -1 -375 -3 -400 -16z"/>
<path d="M5211 2878 c-64 -33 -85 -67 -86 -136 l0 -57 496 -3 c491 -2 497 -2
502 18 14 54 -16 126 -70 167 l-36 28 -381 3 c-380 3 -381 3 -425 -20z"/>
<path d="M1794 2340 c-31 -12 -77 -65 -90 -103 -15 -42 -4 -109 23 -146 11
-14 37 -35 57 -47 36 -20 49 -21 324 -20 243 1 292 4 317 18 82 44 113 145 70
228 -8 16 -35 41 -58 55 l-44 25 -289 -1 c-159 0 -298 -4 -310 -9z"/>
<path d="M3033 2325 c-117 -70 -97 -250 32 -292 18 -6 196 -10 445 -9 433 1
434 1 484 45 78 68 62 206 -30 258 -39 22 -43 23 -464 23 l-425 0 -42 -25z"/>
<path d="M4564 2325 c-42 -25 -72 -72 -78 -123 -5 -37 18 -100 47 -129 45 -46
79 -50 376 -49 l277 1 43 28 c46 30 80 90 76 132 -9 76 -28 109 -86 144 -32
20 -48 21 -324 21 l-290 0 -41 -25z"/>
<path d="M1804 1574 c-135 -46 -144 -234 -15 -299 30 -15 70 -17 315 -17 166
0 292 4 307 10 37 15 86 67 93 99 13 61 14 70 1 106 -16 45 -39 73 -80 95 -25
14 -72 16 -308 17 -193 1 -289 -3 -313 -11z"/>
<path d="M3053 1572 c-16 -8 -39 -24 -52 -36 -86 -78 -46 -235 68 -271 38 -12
842 -8 873 4 65 25 100 79 101 157 1 42 -4 59 -27 88 -54 72 -42 70 -513 71
-345 1 -428 -2 -450 -13z"/>
<path d="M4576 1565 c-119 -60 -120 -227 -3 -287 38 -19 58 -20 321 -20 159 0
292 4 306 10 40 15 87 70 98 113 18 72 -10 140 -75 180 -38 24 -41 24 -323 24
-267 1 -287 0 -324 -20z"/>
</g>
</svg>
